<?xml version="1.0" encoding="UTF-8"?>
<svg id="Layer_1" xmlns="http://www.w3.org/2000/svg" version="1.1" viewBox="0 0 800 800">
  <!-- Generator: Adobe Illustrator 29.4.0, SVG Export Plug-In . SVG Version: 2.1.0 Build 152)  -->
  <defs>
    <style>
      .st0 {
        fill: #fff;
      }
    </style>
  </defs>
  <path class="st0" d="M561.65-.03H238.32C106.73.07.08,106.72-.02,238.31v323.33c.08,131.61,106.74,238.28,238.35,238.38h323.33c131.6-.12,238.25-106.78,238.35-238.38V238.31C799.94,106.71,693.26.03,561.65-.03ZM719.56,561.65c-.02,87.2-70.7,157.88-157.9,157.9H238.32c-87.19,0-157.87-70.68-157.87-157.87V238.31c-.02-87.17,70.63-157.85,157.79-157.87h323.41c87.18.02,157.85,70.69,157.87,157.87l.04,323.33Z"/>
  <path class="st0" d="M400.01,193.15c-114.12,0-206.85,92.77-206.85,206.85s92.77,206.85,206.85,206.85,206.85-92.77,206.85-206.85-92.73-206.85-206.85-206.85ZM400.01,526.37c-69.79.02-126.39-56.54-126.41-126.34-.02-69.79,56.54-126.39,126.34-126.41h.04c69.79,0,126.37,56.58,126.37,126.38,0,69.78-56.56,126.35-126.34,126.37ZM607.29,145.11c27.38.02,49.55,22.23,49.53,49.6-.02,27.38-22.23,49.55-49.6,49.53-27.35-.02-49.51-22.18-49.53-49.53,0-27.35,18.55-49.6,49.6-49.6Z"/>
</svg>