<svg width="202" height="24" viewBox="0 0 202 24" fill="none" xmlns="http://www.w3.org/2000/svg">
<path d="M7.12187 23V5.0625H0.903122V0.453125H19.0594V5.0625H12.8406V23H7.12187ZM16.5912 23L24.185 0.453125H31.2006L38.7944 23H32.7787L31.3725 18.0469H24.0131L22.6069 23H16.5912ZM27.6381 5.35938L25.2006 13.9219H30.185L27.7475 5.35938H27.6381ZM49.4825 23.4062C42.6387 23.4062 38.3575 18.9219 38.3575 11.7344V11.7031C38.3575 4.53125 42.67 0.046875 49.4825 0.046875C56.3419 0.046875 60.6231 4.53125 60.6231 11.7031V11.7344C60.6231 18.9219 56.3575 23.4062 49.4825 23.4062ZM49.4825 18.6562C52.7637 18.6562 54.795 15.9688 54.795 11.7344V11.7031C54.795 7.4375 52.7169 4.79688 49.4825 4.79688C46.2794 4.79688 44.2012 7.42188 44.2012 11.7031V11.7344C44.2012 16.0156 46.2637 18.6562 49.4825 18.6562ZM62.78 23V0.453125H68.5144V9.3125H77.4987V0.453125H83.2175V23H77.4987V13.9219H68.5144V23H62.78ZM86.015 23V0.453125H91.7494V23H86.015ZM94.5312 23V0.453125H103.688C110.484 0.453125 114.5 4.39062 114.5 11.5625V11.5938C114.5 18.7969 110.484 23 103.688 23H94.5312ZM100.266 18.375H102.938C106.672 18.375 108.672 16.1094 108.672 11.6094V11.5781C108.672 7.35938 106.547 5.07812 102.938 5.07812H100.266V18.375ZM122.22 23V0.453125H128.845L134.501 15.1875H134.595L140.251 0.453125H146.876V23H141.829V8.90625H141.704L136.189 23H132.907L127.392 8.90625H127.267V23H122.22ZM149.643 23V0.453125H155.377V23H149.643ZM156.909 23L164.503 0.453125H171.518L179.112 23H173.096L171.69 18.0469H164.331L162.924 23H156.909ZM167.956 5.35938L165.518 13.9219H170.503L168.065 5.35938H167.956ZM180.644 23V0.453125H186.378V9.3125H195.363V0.453125H201.081V23H195.363V13.9219H186.378V23H180.644Z" fill="white"/>
</svg>
