<?xml version="1.0" encoding="UTF-8"?>
<svg id="Layer_1" xmlns="http://www.w3.org/2000/svg" version="1.1" viewBox="0 0 253.45 253.45">
  <!-- Generator: Adobe Illustrator 29.4.0, SVG Export Plug-In . SVG Version: 2.1.0 Build 152)  -->
  <circle cx="126.72" cy="126.72" r="126.72" fill="#161616"/>
  <g>
    <path d="M112.01,87.01l-2.75,15.55h-4.78c-5.02-14.95-9.21-16.27-14.59-16.27-7.18,0-7.18,7.18-7.18,12.08v56.7q0,4.55,4.9,10.29l-1.67,3.23h-19.62l-1.67-3.23q4.9-5.86,4.9-10.29v-56.7c0-4.9,0-12.08-7.18-12.08-5.26,0-9.57,1.32-14.59,16.27h-4.78l-2.75-15.55,1.55-2.15h68.66l1.55,2.15Z" fill="#eee0d5"/>
    <path d="M195.98,84.86h15.55l1.67,3.35q-4.9,5.26-4.9,10.17v56.7q0,4.9,4.9,10.17l-1.67,3.35h-19.62l-1.67-3.35q4.9-5.26,4.9-10.17v-51.91c0-9.69-.6-9.69-4.19.36l-23.56,65.07h-8.49l-24.28-61.36c-4.55-11.6-4.66-9.93-4.66-5.62v50.24q0,5.98,10.29,13.4l-1.67,3.35h-18.9l-1.67-3.35q10.53-7.42,10.53-13.4v-50.24c0-5.98-.24-6.22-9.93-13.4l1.67-3.35h19.86l26.2,66.27c2.99,7.66,2.99,7.54,6.7-2.75l22.97-63.52Z" fill="#eee0d5"/>
  </g>
</svg>